<?xml version="1.0" encoding="UTF-8" standalone="no"?>
<!DOCTYPE svg PUBLIC "-//W3C//DTD SVG 1.1//EN"
 "http://www.w3.org/Graphics/SVG/1.1/DTD/svg11.dtd">
<!-- Generated by graphviz version 2.40.1 (20161225.0304)
 -->
<!-- Title: familyTree Pages: 1 -->
<svg width="1044pt" height="450pt"
 viewBox="0.00 0.00 1044.00 450.00" xmlns="http://www.w3.org/2000/svg" xmlns:xlink="http://www.w3.org/1999/xlink">
<g id="graph0" class="graph" transform="scale(1 1) rotate(0) translate(4 446)">
<title>familyTree</title>
<polygon fill="#ffffff" stroke="transparent" points="-4,4 -4,-446 1040,-446 1040,4 -4,4"/>
<!-- Steffon Baratheon -->
<g id="node1" class="node">
<title>Steffon Baratheon</title>
<polygon fill="none" stroke="#000000" points="144,-136 0,-136 0,-100 144,-100 144,-136"/>
<text text-anchor="middle" x="72" y="-114.3" font-family="Times,serif" font-size="14.00" fill="#000000">Steffon Baratheon</text>
</g>
<!-- Robert Baratheon -->
<g id="node2" class="node">
<title>Robert Baratheon</title>
<polygon fill="none" stroke="#000000" points="590,-254 446,-254 446,-218 590,-218 590,-254"/>
<text text-anchor="middle" x="518" y="-232.3" font-family="Times,serif" font-size="14.00" fill="#000000">Robert Baratheon</text>
</g>
<!-- Steffon Baratheon&#45;&gt;Robert Baratheon -->
<g id="edge1" class="edge">
<title>Steffon Baratheon&#45;&gt;Robert Baratheon</title>
<path fill="none" stroke="#000000" d="M109.4159,-136.1165C125.495,-143.7309 144.5638,-152.5352 162,-160 257.7497,-200.9926 285.2746,-204.7986 388,-222 403.3351,-224.5679 419.7706,-226.7639 435.6199,-228.6031"/>
<polygon fill="#000000" stroke="#000000" points="435.6051,-232.1234 445.9331,-229.7606 436.3859,-225.167 435.6051,-232.1234"/>
<text text-anchor="middle" x="298" y="-221.8" font-family="Times,serif" font-size="14.00" fill="#000000">father</text>
</g>
<!-- Stannis Baratheon -->
<g id="node3" class="node">
<title>Stannis Baratheon</title>
<polygon fill="none" stroke="#000000" points="590,-127 446,-127 446,-91 590,-91 590,-127"/>
<text text-anchor="middle" x="518" y="-105.3" font-family="Times,serif" font-size="14.00" fill="#000000">Stannis Baratheon</text>
</g>
<!-- Steffon Baratheon&#45;&gt;Stannis Baratheon -->
<g id="edge2" class="edge">
<title>Steffon Baratheon&#45;&gt;Stannis Baratheon</title>
<path fill="none" stroke="#000000" d="M144.1621,-116.2626C208.2093,-114.7538 304.331,-112.5703 388,-111 403.3657,-110.7116 419.7537,-110.4352 435.5332,-110.1847"/>
<polygon fill="#000000" stroke="#000000" points="435.8539,-113.6802 445.7978,-110.024 435.7442,-106.681 435.8539,-113.6802"/>
<text text-anchor="middle" x="298" y="-118.8" font-family="Times,serif" font-size="14.00" fill="#000000">father</text>
</g>
<!-- Renyl Baratheon -->
<g id="node4" class="node">
<title>Renyl Baratheon</title>
<polygon fill="none" stroke="#000000" points="590,-64 446,-64 446,-28 590,-28 590,-64"/>
<text text-anchor="middle" x="518" y="-42.3" font-family="Times,serif" font-size="14.00" fill="#000000">Renyl Baratheon</text>
</g>
<!-- Steffon Baratheon&#45;&gt;Renyl Baratheon -->
<g id="edge3" class="edge">
<title>Steffon Baratheon&#45;&gt;Renyl Baratheon</title>
<path fill="none" stroke="#000000" d="M144.075,-106.279C169.9133,-102.0825 199.261,-97.3223 226,-93 296.917,-81.5364 377.5327,-68.5651 436.0653,-59.158"/>
<polygon fill="#000000" stroke="#000000" points="436.678,-62.6045 445.9959,-57.5621 435.5672,-55.6932 436.678,-62.6045"/>
<text text-anchor="middle" x="298" y="-96.8" font-family="Times,serif" font-size="14.00" fill="#000000">father</text>
</g>
<!-- Cassana Estermont -->
<g id="node5" class="node">
<title>Cassana Estermont</title>
<polygon fill="none" stroke="#000000" points="370,-176 226,-176 226,-140 370,-140 370,-176"/>
<text text-anchor="middle" x="298" y="-154.3" font-family="Times,serif" font-size="14.00" fill="#000000">Cassana Estermont</text>
</g>
<!-- Steffon Baratheon&#45;&gt;Cassana Estermont -->
<g id="edge4" class="edge">
<title>Steffon Baratheon&#45;&gt;Cassana Estermont</title>
<path fill="none" stroke="#000000" d="M144.1292,-130.7662C166.9619,-134.8074 192.3675,-139.304 215.8485,-143.4599"/>
<polygon fill="#000000" stroke="#000000" points="215.3239,-146.9214 225.7809,-145.2179 216.544,-140.0285 215.3239,-146.9214"/>
<text text-anchor="middle" x="185" y="-144.8" font-family="Times,serif" font-size="14.00" fill="#000000">husband</text>
</g>
<!-- Gendry -->
<g id="node6" class="node">
<title>Gendry</title>
<polygon fill="none" stroke="#000000" points="1036,-294 892,-294 892,-258 1036,-258 1036,-294"/>
<text text-anchor="middle" x="964" y="-272.3" font-family="Times,serif" font-size="14.00" fill="#000000">Gendry</text>
</g>
<!-- Robert Baratheon&#45;&gt;Gendry -->
<g id="edge8" class="edge">
<title>Robert Baratheon&#45;&gt;Gendry</title>
<path fill="none" stroke="#000000" d="M590.293,-225.7922C662.9616,-217.7586 777.7039,-211.1773 874,-233 891.762,-237.0252 910.1199,-245.0006 925.5862,-253.0011"/>
<polygon fill="#000000" stroke="#000000" points="924.3448,-256.307 934.8113,-257.9507 927.6543,-250.1387 924.3448,-256.307"/>
<text text-anchor="middle" x="744" y="-226.8" font-family="Times,serif" font-size="14.00" fill="#000000">father</text>
</g>
<!-- Joffrey Baratheon -->
<g id="node7" class="node">
<title>Joffrey Baratheon</title>
<polygon fill="none" stroke="#000000" points="1036,-219 892,-219 892,-183 1036,-183 1036,-219"/>
<text text-anchor="middle" x="964" y="-197.3" font-family="Times,serif" font-size="14.00" fill="#000000">Joffrey Baratheon</text>
</g>
<!-- Robert Baratheon&#45;&gt;Joffrey Baratheon -->
<g id="edge9" class="edge">
<title>Robert Baratheon&#45;&gt;Joffrey Baratheon</title>
<path fill="none" stroke="#000000" d="M566.4578,-217.9883C596.3998,-207.8317 635.8791,-196.1693 672,-191 742.3692,-180.9294 823.2008,-184.8815 881.9515,-190.5214"/>
<polygon fill="#000000" stroke="#000000" points="881.6221,-194.0058 891.9199,-191.5148 882.3163,-187.0403 881.6221,-194.0058"/>
<text text-anchor="middle" x="744" y="-194.8" font-family="Times,serif" font-size="14.00" fill="#000000">father</text>
</g>
<!-- Myrcella Baratheon -->
<g id="node8" class="node">
<title>Myrcella Baratheon</title>
<polygon fill="none" stroke="#000000" points="1036,-438 892,-438 892,-402 1036,-402 1036,-438"/>
<text text-anchor="middle" x="964" y="-416.3" font-family="Times,serif" font-size="14.00" fill="#000000">Myrcella Baratheon</text>
</g>
<!-- Robert Baratheon&#45;&gt;Myrcella Baratheon -->
<g id="edge10" class="edge">
<title>Robert Baratheon&#45;&gt;Myrcella Baratheon</title>
<path fill="none" stroke="#000000" d="M529.0444,-254.0996C551.2183,-288.5829 604.8298,-363.099 672,-395 737.6042,-426.1573 820.832,-430.3414 881.6335,-427.9452"/>
<polygon fill="#000000" stroke="#000000" points="882.1256,-431.4262 891.9529,-427.4672 881.8016,-424.4337 882.1256,-431.4262"/>
<text text-anchor="middle" x="744" y="-430.8" font-family="Times,serif" font-size="14.00" fill="#000000">father</text>
</g>
<!-- Tommen Baratheon -->
<g id="node9" class="node">
<title>Tommen Baratheon</title>
<polygon fill="none" stroke="#000000" points="1036,-358 892,-358 892,-322 1036,-322 1036,-358"/>
<text text-anchor="middle" x="964" y="-336.3" font-family="Times,serif" font-size="14.00" fill="#000000">Tommen Baratheon</text>
</g>
<!-- Robert Baratheon&#45;&gt;Tommen Baratheon -->
<g id="edge11" class="edge">
<title>Robert Baratheon&#45;&gt;Tommen Baratheon</title>
<path fill="none" stroke="#000000" d="M545.2118,-254.0087C598.0957,-287.7126 719.617,-358.9087 834,-381 851.4552,-384.3712 856.6267,-384.7708 874,-381 891.0913,-377.2904 908.8301,-370.0419 923.9953,-362.6579"/>
<polygon fill="#000000" stroke="#000000" points="925.7269,-365.7045 933.0764,-358.0733 922.5721,-359.4557 925.7269,-365.7045"/>
<text text-anchor="middle" x="744" y="-379.8" font-family="Times,serif" font-size="14.00" fill="#000000">father</text>
</g>
<!-- Cersei Lannister -->
<g id="node10" class="node">
<title>Cersei Lannister</title>
<polygon fill="none" stroke="#000000" points="816,-307 672,-307 672,-271 816,-271 816,-307"/>
<text text-anchor="middle" x="744" y="-285.3" font-family="Times,serif" font-size="14.00" fill="#000000">Cersei Lannister</text>
</g>
<!-- Robert Baratheon&#45;&gt;Cersei Lannister -->
<g id="edge12" class="edge">
<title>Robert Baratheon&#45;&gt;Cersei Lannister</title>
<path fill="none" stroke="#000000" d="M590.1292,-252.9153C612.9619,-258.2698 638.3675,-264.2278 661.8485,-269.7344"/>
<polygon fill="#000000" stroke="#000000" points="661.2459,-273.188 671.7809,-272.0637 662.8442,-266.3728 661.2459,-273.188"/>
<text text-anchor="middle" x="631" y="-270.8" font-family="Times,serif" font-size="14.00" fill="#000000">husband</text>
</g>
<!-- Shireen Baratheon -->
<g id="node11" class="node">
<title>Shireen Baratheon</title>
<polygon fill="none" stroke="#000000" points="1036,-129 892,-129 892,-93 1036,-93 1036,-129"/>
<text text-anchor="middle" x="964" y="-107.3" font-family="Times,serif" font-size="14.00" fill="#000000">Shireen Baratheon</text>
</g>
<!-- Stannis Baratheon&#45;&gt;Shireen Baratheon -->
<g id="edge17" class="edge">
<title>Stannis Baratheon&#45;&gt;Shireen Baratheon</title>
<path fill="none" stroke="#000000" d="M590.2054,-111.6185C596.2245,-111.7725 602.2163,-111.9036 608,-112 701.6518,-113.5604 809.1803,-112.9229 881.3368,-112.1429"/>
<polygon fill="#000000" stroke="#000000" points="881.76,-115.6385 891.7203,-112.0271 881.6818,-108.639 881.76,-115.6385"/>
<text text-anchor="middle" x="744" y="-116.8" font-family="Times,serif" font-size="14.00" fill="#000000">father</text>
</g>
<!-- Selyse Baratheon -->
<g id="node12" class="node">
<title>Selyse Baratheon</title>
<polygon fill="none" stroke="#000000" points="816,-90 672,-90 672,-54 816,-54 816,-90"/>
<text text-anchor="middle" x="744" y="-68.3" font-family="Times,serif" font-size="14.00" fill="#000000">Selyse Baratheon</text>
</g>
<!-- Stannis Baratheon&#45;&gt;Selyse Baratheon -->
<g id="edge18" class="edge">
<title>Stannis Baratheon&#45;&gt;Selyse Baratheon</title>
<path fill="none" stroke="#000000" d="M590.1292,-97.1912C612.9619,-93.4531 638.3675,-89.2938 661.8485,-85.4496"/>
<polygon fill="#000000" stroke="#000000" points="662.4778,-88.8932 671.7809,-83.8235 661.3468,-81.9852 662.4778,-88.8932"/>
<text text-anchor="middle" x="631" y="-97.8" font-family="Times,serif" font-size="14.00" fill="#000000">husband</text>
</g>
<!-- Margaery Tyrell -->
<g id="node13" class="node">
<title>Margaery Tyrell</title>
<polygon fill="none" stroke="#000000" points="816,-36 672,-36 672,0 816,0 816,-36"/>
<text text-anchor="middle" x="744" y="-14.3" font-family="Times,serif" font-size="14.00" fill="#000000">Margaery Tyrell</text>
</g>
<!-- Renyl Baratheon&#45;&gt;Margaery Tyrell -->
<g id="edge20" class="edge">
<title>Renyl Baratheon&#45;&gt;Margaery Tyrell</title>
<path fill="none" stroke="#000000" d="M590.1292,-37.0636C612.9619,-34.2348 638.3675,-31.0872 661.8485,-28.1781"/>
<polygon fill="#000000" stroke="#000000" points="662.2871,-31.6506 671.7809,-26.9475 661.4264,-24.7037 662.2871,-31.6506"/>
<text text-anchor="middle" x="631" y="-38.8" font-family="Times,serif" font-size="14.00" fill="#000000">husband</text>
</g>
<!-- Cassana Estermont&#45;&gt;Robert Baratheon -->
<g id="edge5" class="edge">
<title>Cassana Estermont&#45;&gt;Robert Baratheon</title>
<path fill="none" stroke="#000000" d="M349.0254,-176.0908C381.2582,-187.5188 423.0828,-202.3475 457.0562,-214.3927"/>
<polygon fill="#000000" stroke="#000000" points="456.276,-217.8294 466.8707,-217.8723 458.6152,-211.2318 456.276,-217.8294"/>
<text text-anchor="middle" x="408" y="-206.8" font-family="Times,serif" font-size="14.00" fill="#000000">mother</text>
</g>
<!-- Cassana Estermont&#45;&gt;Stannis Baratheon -->
<g id="edge6" class="edge">
<title>Cassana Estermont&#45;&gt;Stannis Baratheon</title>
<path fill="none" stroke="#000000" d="M370.1575,-155.1831C389.1595,-153.3993 409.5115,-150.545 428,-146 442.6624,-142.3956 458.0566,-136.7982 471.8844,-131.0387"/>
<polygon fill="#000000" stroke="#000000" points="473.3712,-134.2094 481.1791,-127.0479 470.6094,-127.7772 473.3712,-134.2094"/>
<text text-anchor="middle" x="408" y="-156.8" font-family="Times,serif" font-size="14.00" fill="#000000">mother</text>
</g>
<!-- Cassana Estermont&#45;&gt;Renyl Baratheon -->
<g id="edge7" class="edge">
<title>Cassana Estermont&#45;&gt;Renyl Baratheon</title>
<path fill="none" stroke="#000000" d="M332.9326,-139.9278C362.8887,-124.4622 407.2237,-101.6495 446,-82 454.6046,-77.6397 463.8034,-73.0136 472.6504,-68.582"/>
<polygon fill="#000000" stroke="#000000" points="474.3253,-71.6577 481.7029,-64.0536 471.1936,-65.3973 474.3253,-71.6577"/>
<text text-anchor="middle" x="408" y="-115.8" font-family="Times,serif" font-size="14.00" fill="#000000">mother</text>
</g>
<!-- Cersei Lannister&#45;&gt;Gendry -->
<g id="edge13" class="edge">
<title>Cersei Lannister&#45;&gt;Gendry</title>
<path fill="none" stroke="#000000" d="M816.0362,-284.7433C837.0236,-283.5032 860.1124,-282.1388 881.6824,-280.8642"/>
<polygon fill="#000000" stroke="#000000" points="882.0258,-284.3501 891.8019,-280.2662 881.6129,-277.3623 882.0258,-284.3501"/>
<text text-anchor="middle" x="854" y="-286.8" font-family="Times,serif" font-size="14.00" fill="#000000">mother</text>
</g>
<!-- Cersei Lannister&#45;&gt;Joffrey Baratheon -->
<g id="edge14" class="edge">
<title>Cersei Lannister&#45;&gt;Joffrey Baratheon</title>
<path fill="none" stroke="#000000" d="M789.0512,-270.9795C823.7861,-257.0856 871.9824,-237.807 908.9947,-223.0021"/>
<polygon fill="#000000" stroke="#000000" points="910.6467,-226.111 918.6316,-219.1474 908.0469,-219.6117 910.6467,-226.111"/>
<text text-anchor="middle" x="854" y="-255.8" font-family="Times,serif" font-size="14.00" fill="#000000">mother</text>
</g>
<!-- Cersei Lannister&#45;&gt;Myrcella Baratheon -->
<g id="edge15" class="edge">
<title>Cersei Lannister&#45;&gt;Myrcella Baratheon</title>
<path fill="none" stroke="#000000" d="M774.5901,-307.215C813.8305,-330.5809 881.9399,-371.1369 924.903,-396.7195"/>
<polygon fill="#000000" stroke="#000000" points="923.2869,-399.8307 933.6697,-401.9397 926.8683,-393.8162 923.2869,-399.8307"/>
<text text-anchor="middle" x="854" y="-369.8" font-family="Times,serif" font-size="14.00" fill="#000000">mother</text>
</g>
<!-- Cersei Lannister&#45;&gt;Tommen Baratheon -->
<g id="edge16" class="edge">
<title>Cersei Lannister&#45;&gt;Tommen Baratheon</title>
<path fill="none" stroke="#000000" d="M816.0362,-305.6993C837.1185,-310.5866 860.3214,-315.9654 881.9751,-320.9851"/>
<polygon fill="#000000" stroke="#000000" points="881.2698,-324.4144 891.8019,-323.2632 882.8507,-317.5952 881.2698,-324.4144"/>
<text text-anchor="middle" x="854" y="-322.8" font-family="Times,serif" font-size="14.00" fill="#000000">mother</text>
</g>
<!-- Selyse Baratheon&#45;&gt;Shireen Baratheon -->
<g id="edge19" class="edge">
<title>Selyse Baratheon&#45;&gt;Shireen Baratheon</title>
<path fill="none" stroke="#000000" d="M816.0362,-84.7701C837.0236,-88.4905 860.1124,-92.5836 881.6824,-96.4073"/>
<polygon fill="#000000" stroke="#000000" points="881.3445,-99.9019 891.8019,-98.2013 882.5664,-93.0094 881.3445,-99.9019"/>
<text text-anchor="middle" x="854" y="-98.8" font-family="Times,serif" font-size="14.00" fill="#000000">mother</text>
</g>
</g>
</svg>
